<?xml version="1.0" standalone="no"?>
<!DOCTYPE svg PUBLIC "-//W3C//DTD SVG 20010904//EN"
 "http://www.w3.org/TR/2001/REC-SVG-20010904/DTD/svg10.dtd">
<svg version="1.0" xmlns="http://www.w3.org/2000/svg"
 width="1601.000000pt" height="1601.000000pt" viewBox="0 0 1601.000000 1601.000000"
 preserveAspectRatio="xMidYMid meet">
<metadata>
Created by potrace 1.14, written by Peter Selinger 2001-2017
</metadata>
<g transform="translate(0.000000,1601.000000) scale(0.100000,-0.100000)"
fill="#000000" stroke="none">
<path d="M2439 13836 c-2 -2 -35 -6 -74 -10 -70 -6 -83 -8 -165 -20 -172 -26
-429 -101 -598 -173 -146 -63 -391 -195 -400 -215 -2 -5 -8 -8 -13 -8 -5 0
-33 -17 -61 -37 -213 -151 -422 -348 -574 -543 -299 -383 -496 -874 -541
-1350 -19 -206 -6 -552 27 -710 6 -25 12 -61 15 -80 19 -115 91 -344 160 -505
79 -185 168 -340 289 -505 231 -316 515 -566 856 -755 248 -137 591 -254 845
-290 22 -3 54 -8 70 -10 83 -14 125 -16 305 -19 221 -4 315 3 515 39 140 26
180 36 330 83 162 50 430 169 525 232 14 9 70 46 124 81 55 35 104 68 110 74
6 5 29 23 51 40 43 31 78 61 165 142 l56 52 44 -26 c25 -15 47 -30 48 -35 2
-4 8 -8 13 -8 6 0 15 -5 22 -10 7 -6 221 -150 476 -320 l463 -309 27 17 c14 9
31 20 36 25 6 4 39 26 75 50 36 23 67 45 68 50 2 4 7 7 12 7 18 0 170 112 170
126 0 17 128 475 165 591 12 37 11 43 -3 55 -10 8 -240 162 -512 343 -272 181
-497 330 -499 331 -2 2 9 38 23 81 61 178 113 377 131 508 3 22 7 54 10 70 31
206 21 580 -21 787 -2 13 -7 37 -10 53 -11 64 -46 195 -80 300 -139 428 -404
836 -740 1135 -83 74 -206 172 -246 195 -9 6 -43 28 -75 50 -105 72 -362 204
-488 250 -203 75 -424 131 -585 150 -30 4 -66 9 -80 12 -29 6 -456 14 -461 9z
m396 -970 c369 -63 644 -190 900 -418 68 -61 169 -169 210 -227 46 -64 114
-170 142 -221 57 -105 133 -309 149 -397 3 -15 9 -47 15 -71 31 -139 34 -430
6 -592 -10 -58 -21 -112 -24 -120 -3 -8 -8 -23 -10 -34 -19 -99 -139 -363
-218 -481 -424 -631 -1214 -897 -1929 -648 -376 131 -695 396 -894 744 -88
154 -162 353 -184 496 -1 5 -5 24 -9 43 -25 109 -30 356 -10 505 75 541 414
1014 903 1257 179 89 385 150 557 164 36 3 68 7 69 9 6 6 285 -2 327 -9z"/>
<path d="M15867 13034 c-1 -1 -42 -5 -92 -9 -49 -3 -106 -8 -125 -10 -19 -2
-75 -6 -125 -10 -49 -3 -106 -8 -125 -10 -19 -2 -71 -7 -115 -10 -109 -8 -263
-21 -345 -30 -141 -15 -147 -15 -290 -35 -230 -31 -610 -98 -790 -139 -25 -5
-56 -12 -70 -15 -14 -2 -56 -12 -95 -21 -38 -9 -77 -18 -85 -20 -8 -2 -35 -8
-60 -15 -25 -7 -53 -14 -63 -16 -10 -1 -51 -12 -91 -23 -40 -11 -83 -22 -97
-25 -104 -20 -728 -220 -894 -286 -11 -4 -76 -29 -145 -55 -129 -49 -379 -151
-453 -184 -23 -11 -73 -34 -112 -51 -316 -142 -554 -264 -975 -499 -124 -69
-243 -135 -265 -146 -22 -11 -42 -23 -45 -26 -3 -3 -48 -29 -100 -57 -52 -28
-126 -69 -165 -91 -38 -23 -75 -41 -82 -41 -6 0 -13 -3 -15 -8 -1 -4 -149 -88
-328 -187 -179 -98 -341 -188 -361 -200 -21 -11 -72 -39 -115 -63 -44 -24 -86
-47 -94 -52 -27 -16 -273 -153 -330 -183 -30 -16 -59 -33 -65 -37 -5 -4 -39
-23 -75 -43 -36 -19 -177 -98 -315 -174 -137 -76 -257 -142 -265 -146 -8 -4
-28 -15 -45 -25 -16 -10 -55 -32 -85 -49 -453 -249 -497 -278 -607 -390 -116
-118 -209 -270 -253 -414 -26 -88 -209 -735 -215 -765 -3 -12 -20 -72 -38
-134 l-32 -114 -85 -58 c-47 -31 -90 -62 -97 -68 -7 -5 -14 -10 -17 -10 -2 0
-37 -23 -78 -50 -40 -28 -80 -54 -88 -60 -40 -25 -286 -190 -296 -197 -5 -4
-18 -12 -27 -18 -25 -15 -1581 -1053 -1592 -1062 -5 -5 -26 -19 -46 -31 l-36
-22 -34 36 c-64 68 -254 217 -379 299 -231 151 -527 280 -805 349 -55 14 -116
27 -135 30 -19 2 -46 7 -60 10 -90 20 -231 30 -420 31 -161 0 -333 -10 -363
-20 -7 -2 -30 -6 -52 -9 -22 -2 -51 -7 -65 -10 -14 -3 -36 -8 -50 -10 -99 -16
-427 -114 -455 -136 -5 -4 -21 -11 -35 -15 -25 -8 -246 -115 -285 -138 -97
-58 -237 -153 -320 -216 -89 -68 -293 -261 -370 -351 -59 -67 -225 -293 -225
-304 0 -3 -12 -24 -27 -48 -43 -67 -50 -78 -91 -158 -146 -279 -247 -620 -280
-944 -14 -145 -8 -465 13 -626 8 -62 54 -273 74 -344 178 -616 563 -1136 1097
-1483 267 -173 611 -314 901 -369 48 -9 95 -17 103 -19 199 -38 590 -40 820
-4 83 13 289 57 301 65 5 3 21 8 35 10 129 23 497 190 674 305 83 54 236 163
250 178 3 4 39 35 80 71 310 269 568 643 714 1033 196 524 223 1089 77 1617
-18 66 -67 217 -85 261 -5 12 27 39 141 115 81 54 156 103 165 109 9 5 117 77
240 160 123 82 231 154 240 160 9 5 117 77 240 160 123 82 230 154 240 160 9
5 67 44 130 86 724 484 3114 2075 3122 2078 6 2 13 7 16 10 3 3 340 229 750
502 410 273 1848 1230 3195 2128 l2450 1632 -63 -3 c-35 -1 -64 -3 -65 -4z
m-13052 -6598 c206 -28 363 -75 544 -164 84 -41 233 -133 301 -187 14 -11 75
-69 135 -130 108 -108 208 -235 256 -325 13 -25 28 -52 34 -60 37 -49 117
-261 149 -392 47 -191 57 -498 22 -678 -18 -90 -52 -221 -67 -255 -5 -11 -18
-45 -29 -75 -43 -114 -138 -280 -219 -385 -78 -101 -211 -233 -311 -308 -94
-72 -194 -137 -209 -137 -5 0 -19 -8 -32 -18 -51 -40 -291 -125 -444 -158
-156 -34 -442 -38 -600 -8 -158 29 -325 84 -457 149 -77 38 -254 147 -268 164
-3 3 -23 19 -45 36 -111 82 -306 309 -381 443 -106 190 -153 311 -194 500 -25
114 -34 203 -34 347 0 224 31 388 116 604 175 448 538 796 997 955 116 41 272
75 376 83 39 3 71 7 73 8 5 4 245 -3 287 -9z"/>
<path d="M9005 7108 c-203 -136 -530 -355 -725 -485 -195 -131 -363 -242 -372
-248 -9 -5 -84 -55 -167 -111 l-150 -100 62 -35 c34 -19 91 -50 127 -70 36
-20 124 -69 195 -109 72 -40 158 -88 193 -107 35 -19 116 -64 180 -100 64 -36
142 -79 172 -95 30 -17 111 -62 180 -101 69 -39 159 -88 200 -110 41 -22 87
-48 102 -59 14 -10 28 -18 31 -18 4 0 213 -116 727 -402 66 -37 606 -336 670
-371 30 -17 93 -52 139 -79 46 -26 86 -48 88 -48 1 0 54 -29 116 -64 295 -167
571 -308 907 -464 100 -46 432 -186 555 -233 213 -81 242 -92 490 -174 213
-71 581 -181 665 -199 14 -3 97 -24 185 -46 88 -22 171 -42 185 -44 14 -3 102
-21 195 -41 94 -19 278 -53 410 -75 236 -38 280 -45 380 -56 28 -3 61 -8 75
-10 14 -2 56 -7 94 -10 l68 -7 -6 29 c-4 16 -8 38 -10 49 -3 11 -11 54 -20 95
-8 41 -17 86 -20 100 -17 95 -87 431 -92 442 -3 7 -68 51 -145 98 -78 47 -146
90 -152 95 -7 6 -41 28 -77 49 -36 22 -102 64 -147 93 -45 29 -87 53 -92 53
-6 0 -11 3 -11 8 0 4 -9 12 -20 17 -18 8 -330 203 -625 389 -85 54 -739 491
-1493 997 -250 167 -464 311 -478 319 -34 21 -1397 933 -1409 943 -5 4 -190
128 -410 275 l-400 267 -370 -247z"/>
</g>
</svg>
